# xmcd
#
# Track frame offsets: 
#        150
#        57417
#        109470
#        128355
#        144120
#        185482
#        206060
#        241982
#
# Disc length: 3617 seconds
#
# Revision: 0
# Processed by: cddbd v1.5.2PL0 Copyright (c) Steve Scherf et al.
# Submitted via: ExactAudioCopy v0.99pb4
#
DISCID=6f0e1f08
DTITLE=Erik Kurmangaliev - Glinka, Tchaikovsky, Rimsky-Korsakov, Gluck
DTITLE=, Handel
DYEAR=2008
DGENRE=Classical
TTITLE0=Ratmir's Aria from the opera 'Russlan and Ludmilla' (M. Glinka
TTITLE0=)
TTITLE1=Vanya's Aria from the opera 'A Life for the Tsar' (M. Glinka)
TTITLE2=The Warrior's Arioso from the cantata 'Moscow' (P. Tchaikovsky
TTITLE2=)
TTITLE3=Lel's Third Song from the opera 'The Snow Maiden' (N. Rimsky-K
TTITLE3=orsakov)
TTITLE4=Scene II from the opera 'Orfeo ed Euridice' (Ch. Gluck)
TTITLE5=Orfeo's Aria ['Che faro'] from the opera 'Orfeo ed Euridice' (
TTITLE5=Ch. Gluck)
TTITLE6=Admeto's Aria from the opera 'Admeto' (G. Handel)
TTITLE7=Trazimede's Aria from the opera 'Admeto' (G. Handel)
EXTD=The USSR Maly Symphony Orchestra conducted by Vladimir Ponkin\nRe
EXTD=corded in 1991
EXTT0=
EXTT1=
EXTT2=
EXTT3=
EXTT4=
EXTT5=
EXTT6=
EXTT7=
PLAYORDER=
